<svg width="143" height="143" viewBox="0 0 143 143" fill="none" xmlns="http://www.w3.org/2000/svg">
<g clip-path="url(#clip0_1_32)">
<path d="M122.051 20.9312C94.1677 -6.95184 48.7957 -6.95184 20.9124 20.9312C-6.97097 48.8145 -6.97097 94.1838 20.9124 122.067C34.854 136.009 53.1692 142.981 71.4816 142.981C89.794 142.981 108.109 136.009 122.051 122.067C135.559 108.56 143 90.6018 143 71.499C143 52.3968 135.559 34.4377 122.051 20.9312ZM117.838 117.854C92.2763 143.413 50.6874 143.416 25.1261 117.854C-0.432072 92.2935 -0.432072 50.7045 25.1261 25.1452C37.9067 12.3643 54.6942 5.9743 71.4818 5.9743C88.2693 5.9743 105.057 12.3643 117.838 25.1452C130.219 37.5267 137.04 53.9885 137.04 71.499C137.04 89.0098 130.219 105.471 117.838 117.854Z" fill="#4FA9DB"/>
<path d="M75.6962 71.4989L105.197 41.9993L100.983 37.7858L71.4824 67.2849L41.9833 37.7858L37.7699 41.9993L67.2689 71.4983L39.8766 98.8893L44.0904 103.103L71.4824 75.7121L101.018 105.247L105.232 101.034L75.6962 71.4989Z" fill="#4FA9DB"/>
</g>
<defs>
<clipPath id="clip0_1_32">
<rect width="143" height="143" fill="white"/>
</clipPath>
</defs>
</svg>
