<svg width="89" height="66" viewBox="0 0 89 66" fill="none" xmlns="http://www.w3.org/2000/svg">
<path d="M25.1611 10.2225L25.1614 10.2222C30.5399 5.58426 37.3996 3.02264 44.5016 3C58.9691 3.00078 70.939 13.7537 72.2403 27.5645C72.2837 28.0253 72.6377 28.3961 73.0959 28.4608C81.4896 29.6471 88 36.6664 88 45.2373C88 54.6451 80.1458 62.1875 70.5714 62.1875H21.0318C10.0226 62.1875 1 53.5161 1 42.7064C1 33.3988 7.68609 25.6604 16.5804 23.6968C16.9794 23.6087 17.2846 23.2868 17.3514 22.8838C18.0988 18.3733 21.0264 13.785 25.1611 10.2225Z" stroke="#4FA9DB" stroke-width="2" stroke-linejoin="round"/>
<path d="M45 40V20" stroke="#4FA9DB" stroke-width="2" stroke-linecap="round" stroke-linejoin="round"/>
<path d="M38 27L45 20L52 27" stroke="#4FA9DB" stroke-width="2" stroke-linecap="round" stroke-linejoin="round"/>
</svg>
