<svg width="162" height="39" viewBox="0 0 162 39" fill="none" xmlns="http://www.w3.org/2000/svg">
<path d="M32.9972 16.3604L33.5763 17.5076C38.8609 18.0431 42.4443 19.0374 42.4443 20.2229C42.4443 21.9439 34.7708 23.3206 25.2512 23.3206C15.7679 23.3206 8.0582 21.9439 8.0582 20.2229C8.0582 19.0374 11.6416 18.0431 16.9262 17.5076L17.5053 16.3604C7.91342 17.0105 1 18.8079 1 20.9495C1 23.6266 11.8588 25.8064 25.2512 25.8064C38.6437 25.8064 49.5025 23.6266 49.5025 20.9495C49.5025 18.8079 42.5891 17.0105 32.9972 16.3604Z" fill="#232F5F" stroke="#232F5F" stroke-width="1.5" stroke-miterlimit="10"/>
<path d="M16.0128 31.7093L25.6047 12.3965L25.6409 12.32L25.6771 12.3965L29.6224 20.3511L37.2598 35.8013L44.3903 38.7078L35.269 20.3511L25.6771 1L16.0852 20.3511L7 38.6313L13.9858 35.8013L16.0128 31.7093Z" fill="#232F5F"/>
<path opacity="0.05" d="M34.8439 20.1079L25.252 0.756836V12.1533L29.1973 20.1079L36.8346 35.5581L43.9652 38.4646L34.8439 20.1079Z" fill="#232F5F"/>
<path d="M67.6045 28.2798C65.3604 26.0234 64.2383 23.0022 64.2383 19.2926C64.2383 15.5831 65.3604 12.5618 67.6045 10.3055C69.8486 8.04915 72.7443 6.90186 76.2553 6.90186C79.7663 6.90186 82.662 8.04915 84.9061 10.3055C87.1503 12.5618 88.2723 15.5831 88.2723 19.2926C88.2723 23.0022 87.1503 26.0234 84.9061 28.2798C82.662 30.5361 79.7663 31.6834 76.2553 31.6834C72.7443 31.6834 69.8486 30.5361 67.6045 28.2798ZM71.2241 13.8239C69.9572 15.2389 69.3057 17.0745 69.3057 19.2926C69.3057 21.5108 69.9572 23.3464 71.2241 24.7614C72.4909 26.1764 74.156 26.903 76.2553 26.903C78.3547 26.903 80.0197 26.1764 81.2865 24.7614C82.5534 23.3464 83.2049 21.5108 83.2049 19.2926C83.2049 17.0745 82.5534 15.2389 81.2865 13.8239C80.0197 12.4089 78.3547 11.6823 76.2553 11.6823C74.156 11.6823 72.4909 12.4089 71.2241 13.8239Z" fill="#232F5F"/>
<path d="M115.384 9.38778L112.017 13.2886C111.655 12.7914 111.112 12.3707 110.425 12.1413C109.737 11.8736 109.086 11.7589 108.434 11.7589C107.601 11.7589 106.841 11.9501 106.154 12.3708C105.466 12.7914 105.104 13.4033 105.104 14.1682C105.104 14.7418 105.285 15.239 105.683 15.6214C106.045 16.0039 106.552 16.3098 107.131 16.5393C107.71 16.7687 108.398 16.9982 109.122 17.1894C109.846 17.4188 110.606 17.6483 111.33 17.9543C112.054 18.2602 112.741 18.6426 113.32 19.1015C113.936 19.5605 114.406 20.2106 114.768 21.0137C115.13 21.8168 115.347 22.8111 115.347 23.9202C115.347 26.4442 114.515 28.3564 112.886 29.6949C111.257 31.0334 109.194 31.6836 106.733 31.6836C103.765 31.6836 101.231 30.6892 99.2402 28.7388L102.751 24.6851C103.258 25.3734 103.873 25.9088 104.67 26.3295C105.43 26.7119 106.226 26.9414 107.059 26.9414C107.927 26.9414 108.724 26.7119 109.411 26.2913C110.099 25.8706 110.461 25.2587 110.461 24.4938C110.461 23.8437 110.208 23.2701 109.701 22.8111C109.194 22.3522 108.543 22.008 107.746 21.7786C106.95 21.5491 106.117 21.2814 105.213 20.899C104.308 20.5548 103.475 20.1724 102.679 19.7517C101.919 19.331 101.267 18.6809 100.724 17.8013C100.218 16.9217 99.9642 15.8891 99.9642 14.6653C99.9642 12.256 100.797 10.3821 102.462 9.04359C104.127 7.70508 106.117 7.01671 108.47 7.01671C111.33 6.90198 113.61 7.74333 115.384 9.38778Z" fill="#232F5F"/>
<path d="M128.342 31.0715V7.51367H133.264V31.0715H128.342Z" fill="#232F5F"/>
<path d="M161.46 9.38778L158.094 13.2886C157.732 12.7914 157.189 12.3707 156.501 12.1413C155.813 11.8736 155.162 11.7589 154.51 11.7589C153.678 11.7589 152.918 11.9501 152.23 12.3708C151.542 12.7914 151.18 13.4033 151.18 14.1682C151.18 14.7418 151.361 15.239 151.759 15.6214C152.121 16.0039 152.628 16.3098 153.207 16.5393C153.786 16.7687 154.474 16.9982 155.198 17.1894C155.922 17.4188 156.682 17.6483 157.406 17.9543C158.13 18.2602 158.817 18.6426 159.397 19.1015C160.012 19.5605 160.482 20.2106 160.844 21.0137C161.206 21.8168 161.424 22.8111 161.424 23.9202C161.424 26.4442 160.591 28.3564 158.962 29.6949C157.333 31.0334 155.27 31.6836 152.809 31.6836C149.841 31.6836 147.307 30.6892 145.316 28.7388L148.827 24.6851C149.334 25.3734 149.949 25.9088 150.746 26.3295C151.506 26.7119 152.302 26.9414 153.135 26.9414C154.003 26.9414 154.8 26.7119 155.487 26.2913C156.175 25.8706 156.537 25.2587 156.537 24.4938C156.537 23.8437 156.284 23.2701 155.777 22.8111C155.27 22.3522 154.619 22.008 153.822 21.7786C153.026 21.5491 152.194 21.2814 151.289 20.899C150.384 20.5548 149.551 20.1724 148.755 19.7517C147.995 19.331 147.343 18.6809 146.8 17.8013C146.294 16.9217 146.04 15.8891 146.04 14.6653C146.04 12.256 146.873 10.3821 148.538 9.04359C150.203 7.70508 152.194 7.01671 154.546 7.01671C157.406 6.90198 159.686 7.74333 161.46 9.38778Z" fill="#232F5F"/>
</svg>
