<svg width="51" height="39" viewBox="0 0 51 39" fill="none" xmlns="http://www.w3.org/2000/svg">
<path d="M32.9972 16.3604L33.5763 17.5076C38.8609 18.0431 42.4443 19.0374 42.4443 20.2229C42.4443 21.9439 34.7708 23.3206 25.2512 23.3206C15.7679 23.3206 8.0582 21.9439 8.0582 20.2229C8.0582 19.0374 11.6416 18.0431 16.9262 17.5076L17.5053 16.3604C7.91342 17.0105 1 18.8079 1 20.9495C1 23.6266 11.8588 25.8064 25.2512 25.8064C38.6437 25.8064 49.5025 23.6266 49.5025 20.9495C49.5025 18.8079 42.5891 17.0105 32.9972 16.3604Z" fill="#232F5F" stroke="#232F5F" stroke-width="1.5" stroke-miterlimit="10"/>
<path d="M16.0128 31.7093L25.6047 12.3965L25.6409 12.32L25.6771 12.3965L29.6224 20.3511L37.2598 35.8013L44.3903 38.7078L35.269 20.3511L25.6771 1L16.0852 20.3511L7 38.6313L13.9858 35.8013L16.0128 31.7093Z" fill="#232F5F"/>
<path opacity="0.05" d="M34.8439 20.1079L25.252 0.756836V12.1533L29.1973 20.1079L36.8346 35.5581L43.9652 38.4646L34.8439 20.1079Z" fill="#232F5F"/>
</svg>
